<?xml version="1.0" standalone="no"?>
<!DOCTYPE svg PUBLIC "-//W3C//DTD SVG 20010904//EN"
 "http://www.w3.org/TR/2001/REC-SVG-20010904/DTD/svg10.dtd">
<svg version="1.0" xmlns="http://www.w3.org/2000/svg"
 width="700.000000pt" height="700.000000pt" viewBox="0 0 700.000000 700.000000"
 preserveAspectRatio="xMidYMid meet">
<metadata>
Created by potrace 1.11, written by Peter Selinger 2001-2013
</metadata>
<g transform="translate(0.000000,700.000000) scale(0.100000,-0.100000)"
fill="#000000" stroke="none">
<path d="M3772 6489 c-317 -31 -656 -151 -1028 -365 -314 -180 -541 -421 -706
-749 -33 -66 -61 -121 -62 -122 -1 -1 -26 4 -56 12 -97 26 -162 29 -224 11
-113 -33 -162 -110 -154 -238 9 -131 103 -270 227 -336 l58 -31 -10 -63 c-14
-92 -13 -535 1 -653 23 -184 43 -258 153 -588 l110 -329 -39 -34 c-123 -105
-103 -278 41 -363 55 -33 57 -35 57 -77 0 -23 -6 -49 -14 -56 -7 -8 -79 -38
-160 -67 l-146 -53 -60 56 c-122 112 -286 167 -436 147 -186 -26 -326 -129
-473 -346 -118 -175 -134 -227 -79 -268 l28 -21 147 47 c227 71 354 100 389
87 41 -16 63 -38 89 -90 46 -90 57 -239 20 -270 -7 -6 -123 -47 -257 -91 -253
-83 -278 -96 -278 -147 0 -47 122 -153 243 -211 119 -58 175 -71 296 -71 224
0 435 109 518 267 36 67 63 153 63 198 0 36 16 60 45 69 20 6 21 -1 33 -112
21 -199 81 -425 157 -598 22 -49 25 -71 25 -168 0 -128 -12 -215 -40 -289 -20
-53 -34 -76 -95 -161 -53 -74 -46 -149 23 -227 46 -53 114 -83 198 -87 144 -8
231 62 330 266 31 64 58 118 60 120 1 2 24 -8 51 -21 176 -89 443 -169 694
-209 123 -19 182 -22 409 -22 291 1 386 12 598 72 l102 29 0 -94 c0 -106 11
-138 62 -177 92 -69 237 -58 332 25 103 91 120 181 81 424 l-7 40 68 45 c83
55 248 211 310 293 130 173 256 479 321 777 30 137 41 383 24 529 -6 52 -9 97
-7 99 2 2 28 -9 58 -24 41 -21 71 -28 135 -32 74 -4 88 -2 137 22 99 49 159
143 160 252 0 96 -41 149 -135 174 -24 7 -57 19 -72 27 l-28 14 62 66 c79 85
167 218 236 358 62 126 66 165 21 198 l-28 21 -152 -62 c-213 -87 -392 -145
-396 -128 -8 33 79 562 94 576 5 4 59 26 119 50 130 50 145 61 145 108 0 28
-8 42 -41 73 -34 31 -143 110 -167 121 -4 2 -4 53 -1 113 12 192 -12 453 -62
666 l-20 87 23 73 c19 61 23 95 22 199 0 109 -3 135 -27 203 l-27 78 39 47
c55 66 73 107 79 177 8 110 -54 188 -182 227 -112 34 -258 15 -358 -48 -20
-13 -44 -24 -51 -24 -7 0 -31 18 -52 41 -49 50 -207 171 -296 226 -164 103
-390 200 -575 248 -221 57 -500 83 -692 64z m329 -149 c363 -36 751 -186 1012
-393 l39 -30 -72 -18 c-238 -61 -430 -251 -490 -485 -24 -95 -27 -244 -5 -329
64 -247 261 -444 500 -501 92 -21 231 -21 320 1 99 24 218 89 291 157 72 68
63 77 90 -102 17 -110 26 -441 13 -454 -3 -3 -43 2 -90 10 -110 21 -235 14
-354 -21 -309 -91 -474 -293 -475 -582 0 -79 -1 -81 -27 -91 -16 -5 -329 -121
-698 -257 -862 -318 -1294 -475 -1306 -475 -5 0 -47 38 -92 83 -162 165 -336
249 -486 235 l-48 -5 -106 316 c-114 341 -140 445 -156 644 -47 566 64 1074
317 1453 162 241 347 401 652 562 448 236 794 319 1171 282z m1696 -516 c39
-29 42 -74 9 -125 l-26 -39 -40 44 c-22 23 -67 63 -100 87 -72 52 -65 60 52
56 60 -2 83 -7 105 -23z m-435 -29 c248 -52 430 -266 445 -520 14 -252 -132
-473 -372 -565 -44 -17 -89 -24 -168 -28 -98 -4 -116 -2 -193 23 -236 77 -394
291 -394 535 0 162 51 281 170 401 140 141 320 195 512 154z m-3504 -666 c26
-7 51 -15 55 -19 4 -4 -6 -56 -22 -116 -16 -60 -32 -121 -35 -136 -4 -16 -11
-28 -16 -28 -21 0 -103 86 -127 135 -69 135 -11 201 145 164z m3840 -1601
c-15 -90 -30 -198 -34 -241 -4 -50 -11 -77 -18 -74 -17 5 -75 107 -92 162 -21
69 -28 174 -15 208 8 22 30 37 94 67 45 21 84 39 87 39 3 1 -7 -72 -22 -161z
m-3274 -574 c70 -25 160 -87 242 -169 88 -87 196 -226 225 -290 22 -48 24
-126 4 -164 -30 -59 -115 -107 -165 -94 -14 4 -32 30 -55 79 -63 138 -180 238
-418 359 -150 76 -187 109 -187 166 0 32 40 83 81 104 65 34 189 38 273 9z
m2771 -161 c120 -110 237 -172 373 -195 l72 -12 0 -71 c0 -39 9 -168 20 -286
22 -223 21 -301 -6 -459 -38 -230 -145 -533 -246 -699 -190 -313 -582 -551
-1085 -658 -121 -26 -143 -27 -398 -28 -298 0 -394 10 -625 66 -369 90 -691
277 -813 472 -78 124 -165 356 -202 542 -26 128 -47 326 -36 336 3 4 148 59
321 122 173 64 464 170 645 237 182 67 470 173 640 235 171 63 524 193 785
289 261 96 477 175 478 175 2 1 37 -29 77 -66z m810 -159 c26 -15 72 -35 103
-44 68 -21 85 -46 72 -104 -11 -48 -36 -83 -81 -114 -52 -36 -134 -28 -232 23
l-76 38 -3 85 c-2 68 0 85 12 89 8 2 42 15 75 28 77 30 74 30 130 -1z m-3402
-2038 c31 -22 57 -46 57 -54 0 -20 -75 -177 -112 -235 -54 -85 -147 -118 -231
-83 -38 15 -87 69 -87 95 0 10 19 42 43 73 62 79 95 161 114 280 l17 103 71
-70 c39 -38 97 -88 128 -109z m2391 -152 c28 -207 -26 -308 -165 -309 -89 0
-99 14 -99 140 l0 103 58 21 c31 12 86 38 122 56 36 19 68 34 71 35 4 0 9 -21
13 -46z"/>
<path d="M2970 5734 c-164 -29 -285 -89 -389 -194 -135 -134 -191 -261 -199
-448 -5 -133 11 -218 65 -329 86 -177 259 -316 453 -364 76 -19 240 -17 320 5
301 79 510 348 510 656 0 362 -284 659 -644 675 -50 2 -102 2 -116 -1z m241
-130 c190 -56 348 -222 394 -415 75 -322 -143 -639 -475 -688 -331 -50 -640
217 -640 552 0 166 50 287 165 403 148 150 358 206 556 148z"/>
<path d="M2946 5168 c-53 -14 -131 -91 -145 -143 -17 -64 -13 -107 17 -166 37
-74 92 -111 172 -117 104 -8 188 42 226 134 46 111 -23 255 -140 289 -56 17
-75 17 -130 3z m148 -104 c35 -34 8 -104 -41 -104 -29 0 -63 33 -63 62 0 49
69 78 104 42z"/>
<path d="M4154 4640 c-69 -22 -144 -82 -164 -130 -7 -17 -10 -48 -7 -73 4 -34
15 -50 52 -84 44 -41 119 -73 169 -73 12 0 26 -4 32 -8 9 -6 37 -192 30 -199
-7 -8 -125 31 -179 58 -67 34 -116 69 -189 136 -26 24 -53 43 -60 43 -27 0
-58 -31 -58 -58 0 -32 79 -111 174 -173 l63 -41 6 -92 c16 -229 87 -323 251
-334 149 -9 199 49 251 295 17 81 19 83 54 94 48 16 152 67 174 87 22 20 22
55 -1 75 -26 24 -39 22 -136 -24 -72 -34 -222 -77 -231 -67 -7 7 -26 199 -20
208 3 5 12 10 18 10 7 0 39 13 72 29 67 31 107 72 125 127 26 79 -41 166 -153
199 -71 21 -198 18 -273 -5z m56 -669 c25 -6 82 -11 128 -11 45 0 82 -2 82 -6
0 -3 -7 -37 -16 -76 -19 -85 -37 -130 -58 -148 -22 -18 -111 -8 -144 17 -32
23 -57 91 -66 181 -7 59 -6 63 11 58 10 -3 38 -10 63 -15z"/>
<path d="M5076 5310 c-56 -28 -76 -48 -102 -105 -43 -90 -27 -175 45 -246 106
-107 274 -83 343 50 80 152 -21 321 -192 320 -34 0 -70 -7 -94 -19z m172 -86
c44 -31 20 -104 -35 -104 -57 0 -82 61 -43 100 24 24 48 25 78 4z"/>
</g>
</svg>
